<svg width="68" height="64" viewBox="0 0 68 64" fill="none" xmlns="http://www.w3.org/2000/svg">
<g id="Frame 1129">
<path id="Vector" d="M20.2895 48.1994C17.4497 48.0493 17.5032 43.9162 20.2894 43.7727C28.1818 43.8011 48.9987 43.7803 57.1422 43.7863C59.3695 43.7863 61.275 42.2179 61.776 39.9725L66.4 19.2534C66.6649 18.0671 66.3976 16.8392 65.667 15.8849C64.9364 14.9306 63.8426 14.3755 62.666 14.3755C59.39 14.3755 31.582 14.2453 17.3388 14.1865L15.081 5.51818C14.539 3.44667 12.7121 2 10.6381 2H3.40531C2.35307 2 1.5 2.8827 1.5 3.97148C1.5 5.06027 2.35307 5.94297 3.40531 5.94297H10.6381C10.9952 5.94297 11.3095 6.19203 11.4024 6.5465L20.0735 39.8351C18.5488 39.8924 17.1287 40.5341 16.0519 41.6647C14.9204 42.8528 14.3127 44.4255 14.3408 46.0933C14.3969 49.4286 17.0655 52.1422 20.2895 52.1422H23.0677C22.6548 53.0391 22.423 54.0418 22.423 55.0995C22.423 58.9045 25.4146 62 29.0918 62C32.7691 62 35.7606 58.9045 35.7606 55.0995C35.7606 54.0416 35.5287 53.0391 35.1158 52.1422H47.1466C46.7341 53.0388 46.5023 54.041 46.5023 55.0985C46.5023 58.9035 49.494 61.9989 53.1711 61.9989C56.8484 61.9989 59.8401 58.9033 59.8401 55.0985C59.8401 53.9999 59.5893 52.961 59.146 52.0381C59.9 51.7754 60.4437 51.0395 60.4437 50.1708C60.4437 49.0821 59.5906 48.1994 58.5384 48.1994H20.2895ZM31.9499 55.0997C31.9499 56.7305 30.6677 58.0572 29.0917 58.0572C27.5156 58.0572 26.2335 56.7305 26.2335 55.0997C26.2335 53.4698 27.5143 52.1436 29.0893 52.1423H29.0941C30.669 52.1436 31.9499 53.4698 31.9499 55.0997ZM53.1712 58.0561C51.5953 58.0561 50.313 56.7293 50.313 55.0986C50.313 53.484 51.5703 52.1682 53.1249 52.1423H53.2177C54.7725 52.1682 56.0297 53.484 56.0297 55.0986C56.0296 56.7293 54.7473 58.0561 53.1712 58.0561ZM62.68 18.333C62.6913 18.3477 62.6896 18.3546 62.6872 18.3659L60.7389 27.0963H54.1412L55.2647 18.2873L62.6508 18.3181C62.6621 18.3184 62.6688 18.3184 62.68 18.333ZM43.0369 39.8432V31.0393H49.7946L48.6718 39.8432H43.0369ZM33.5888 39.8432L32.4568 31.0393H39.2263V39.8432H33.5888ZM24.8177 39.8432H24.8117C24.3473 39.843 23.9382 39.5189 23.8174 39.0572L21.7289 31.0393H28.6126L29.7446 39.8432H24.8177ZM31.9498 27.0965L30.8039 18.1855L39.2261 18.2206V27.0965H31.9498ZM43.0369 27.0965V18.2365L51.423 18.2714L50.2975 27.0965H43.0369ZM26.9576 18.1693L28.1055 27.0963H20.7018L18.3672 18.1334L26.9576 18.1693ZM57.1422 39.8432H52.5153L53.6382 31.0393H59.8587L58.063 39.0852C57.9635 39.5315 57.5848 39.8432 57.1422 39.8432Z" fill="#0551A0" stroke="#0551A0" stroke-width="0.396825"/>
</g>
</svg>
