<svg width="48" height="48" viewBox="0 0 48 48" fill="none" xmlns="http://www.w3.org/2000/svg">
<g id="Logo">
<g id="Group">
<g id="Group_2">
<path id="Vector" d="M11.4454 13.881L11.2672 17.1501C10.6993 17.403 10.0872 17.5435 9.46524 17.5637C8.86898 17.5709 8.27803 17.4517 7.73172 17.214C7.18541 16.9763 6.69629 16.6255 6.29692 16.1851C5.29318 14.9914 4.77722 13.466 4.85138 11.9116C4.75276 10.3551 5.23978 8.81784 6.21772 7.59871C6.65499 7.0755 7.20753 6.65946 7.83251 6.38283C8.4575 6.10619 9.13814 5.97641 9.82168 6.00352C10.3291 6.0091 10.8316 6.1024 11.3068 6.27923V9.4696C11.1348 9.27382 10.9255 9.11385 10.691 8.99893C10.4565 8.884 10.2014 8.8164 9.94049 8.80002C9.65113 8.79311 9.36507 8.86232 9.11124 9.00064C8.85741 9.13897 8.64481 9.3415 8.49494 9.58777C8.10682 10.2492 7.92102 11.0089 7.96029 11.7738C7.9557 12.1838 7.99554 12.5932 8.0791 12.9948C8.16273 13.306 8.28935 13.6043 8.45534 13.881C8.60942 14.1311 8.82908 14.3347 9.09073 14.47C9.35238 14.6053 9.64614 14.6672 9.94049 14.649C10.521 14.5889 11.0578 14.3149 11.4454 13.881Z" fill="#0551A0"/>
<path id="Vector_2" d="M12.5146 17.3667V6.20044H18.1384V8.8197H15.5444V10.4543H17.8612V12.9751H15.5444V14.6884H18.1384V17.3667H12.5146Z" fill="#0551A0"/>
<path id="Vector_3" d="M22.8515 17.3668H19.8416V6.20052H22.7722C23.9251 6.11441 25.0725 6.42751 26.0198 7.08674C26.428 7.4406 26.7518 7.88051 26.9676 8.37448C27.1834 8.86845 27.2858 9.40405 27.2673 9.94232C27.3107 10.517 27.2126 11.0936 26.9814 11.622C26.7502 12.1505 26.3929 12.615 25.9406 12.9751C25.1636 13.4705 24.2476 13.7051 23.3267 13.6447H22.8515V17.3668ZM22.8515 11.2027H22.9901C23.2934 11.1965 23.5832 11.0769 23.8019 10.8679C23.9283 10.7489 24.0287 10.6054 24.0968 10.4461C24.165 10.2869 24.1994 10.1154 24.198 9.94232C24.194 9.59388 24.0517 9.26114 23.8019 9.01671C23.7057 8.89533 23.582 8.79821 23.4409 8.7332C23.2999 8.6682 23.1454 8.63714 22.9901 8.64254H22.8515V11.2027Z" fill="#0551A0"/>
<path id="Vector_4" d="M32.1387 17.3667H29.109V8.87878H27.4258V6.20044H33.8614V8.87878H32.1387V17.3667Z" fill="#0551A0"/>
<path id="Vector_5" d="M34.8911 17.3667V6.20044H40.5347V8.8197H37.9208V10.4543H40.2574V12.9751H37.9208V14.6884H40.5347V17.3667H34.8911Z" fill="#0551A0"/>
</g>
<g id="Group_3">
<path id="Vector_6" d="M10.0594 36.1939L11.3465 36.5287L7.9604 42.0036L6.67327 41.4521L8.41584 36.8832C7.37987 37.2845 6.27998 37.4979 5.16832 37.5134L4.67327 34.7563C6.11583 34.7392 7.52631 34.3307 8.75248 33.5747C8.75248 33.5747 9.66337 32.6294 8.9703 31.9992C8.39311 31.4422 7.7231 30.9891 6.9901 30.66C5.70297 29.9314 4 28.7103 4 27.0758C4.07614 26.4563 4.29427 25.8625 4.63759 25.3401C4.9809 24.8177 5.44024 24.3806 5.9802 24.0626C7.79708 22.9299 9.81252 22.1482 11.9208 21.7585L12.1584 24.5156C12.1584 24.5156 8.05941 24.811 8.0396 26.3077C8.0396 26.3077 8.0396 27.1152 9.0099 27.7257C9.9802 28.3362 12.4951 29.2815 12.9703 30.5222C12.9703 30.5222 14.3762 33.5156 9.9604 36.1349" fill="#0551A0"/>
<g id="Group 473">
<path id="Vector_7" d="M27.0097 23.3931L30.9503 18.1349L26.5146 21.4631L27.0097 23.3931Z" fill="#EC2027"/>
<path id="Vector_8" d="M20.1978 21.8963L13.6433 15.5353L16.079 19.7891L20.1978 21.8963Z" fill="#EC2027"/>
<g id="Group_4">
<path id="Vector_9" d="M12.3364 36.2136L14.9701 32.1371L11.2275 27.1743L15.8018 25.4609L12.5147 17.997L20.8711 23.1567L25.8414 20.439L26.6335 25.264L35.0493 25.1261L28.2572 31.0933L29.5444 37.6907L23.0295 36.1152L20.6929 40.9992L17.4652 34.8942L12.3364 36.2136Z" fill="#EC2027"/>
<path id="Vector_10" d="M10.7324 40.113L16.97 35.6031L17.8809 37.1393L10.7324 40.113Z" fill="#EC2027"/>
<path id="Vector_11" d="M23.4255 36.7847L26.4552 37.474L28.2968 41.5506L23.4255 36.7847Z" fill="#EC2027"/>
</g>
<path id="Vector_12" d="M21.1681 24.1611C21.9403 24.0386 22.7304 24.0926 23.4784 24.3191C24.2264 24.5455 24.9127 24.9385 25.4853 25.468C26.0579 25.9976 26.5016 26.6499 26.7829 27.3755C27.0642 28.1011 27.1756 28.8808 27.1087 29.6556C27.0621 30.401 26.8643 31.1293 26.5271 31.7967C26.19 32.464 25.7205 33.0566 25.1469 33.5387C24.5734 34.0208 23.9076 34.3824 23.1898 34.6018C22.472 34.8212 21.7169 34.8939 20.9701 34.8154C20.9701 34.8154 15.7622 34.8154 15.7622 30.0101C15.7622 30.0101 15.7622 24.3777 21.2276 24.102" fill="white"/>
<path id="Vector_13" d="M21.3067 26.8591C21.3067 26.8591 23.584 26.7212 23.4849 29.5768C23.4849 29.5768 23.2671 32.0385 21.1879 31.9794C20.8941 31.9501 20.6092 31.8628 20.3498 31.7226C20.0905 31.5823 19.8618 31.3919 19.6774 31.1627C19.493 30.9334 19.3564 30.6698 19.2758 30.3873C19.1951 30.1048 19.172 29.8092 19.2077 29.5177C19.2077 29.5177 19.2077 27.0167 21.3661 26.8591" fill="#EC2027"/>
</g>
<path id="Vector_14" d="M31.5247 37.7498L35.2277 37.0408L33.7822 29.6951L41.7624 35.938L44 33.0036L37.5247 28.4544L41.5445 22.6054L38.594 20.7542L33.6238 28.8285L32.297 21.8373L28.5544 22.5266L31.5247 37.7498Z" fill="#0551A0"/>
</g>
</g>
</g>
</svg>
